<?xml version="1.0" encoding="UTF-8"?>
<svg viewBox="0 0 48 48" xmlns="http://www.w3.org/2000/svg" xmlns:xlink="http://www.w3.org/1999/xlink">
 <defs>
  <clipPath id="n">
   <path d="m385.57 723.22c-127.77 26.907-273.55 24.211-360.88 117.55l34.09-208.06 316.21 2.351 10.58 88.163z"/>
  </clipPath>
  <clipPath id="m">
   <path d="m109.32 958.32h365.58l-24.686 58.775-339.72-3.5265-1.1755-55.249z"/>
  </clipPath>
  <clipPath id="l">
   <path d="m175.57 755.37h256.17c7.8487 0.0324 11.872 3.4644 11.864 12.19l-6.362 258.55c-0.33511 7.4304-1.9476 14.001-11.818 13.736h-248.04c-9.0666-0.01-10.996-5.1258-11.234-11.484l-6.315-256.63c-0.0866-11.698 2.2968-16.499 15.74-16.354z"/>
  </clipPath>
  <filter id="j">
   <feGaussianBlur stdDeviation=".41274"/>
  </filter>
  <filter id="h">
   <feGaussianBlur stdDeviation=".42619"/>
  </filter>
  <filter id="k" x="-.12548" y="-.13924" width="1.251" height="1.2785">
   <feGaussianBlur stdDeviation="12.50254"/>
  </filter>
  <filter id="i" x="-.05831" y="-.73042" width="1.1166" height="2.4608">
   <feGaussianBlur stdDeviation="6.79736"/>
  </filter>
  <linearGradient id="a">
   <stop stop-color="#fff" offset="0"/>
   <stop stop-color="#ccc" offset="1"/>
  </linearGradient>
  <linearGradient id="g" x1="421.46" x2="563.85" y1="881.83" y2="596.35" gradientUnits="userSpaceOnUse">
   <stop stop-color="#4d4d4d" offset="0"/>
   <stop stop-color="#8a8a8a" offset="1"/>
  </linearGradient>
  <linearGradient id="e" x1="621" x2="621.06" y1="881.33" y2="636.76" gradientUnits="userSpaceOnUse">
   <stop stop-color="#ff7f2a" offset="0"/>
   <stop stop-color="#fd5" offset="1"/>
  </linearGradient>
  <linearGradient id="c" x1="-160.76" x2="353.05" y1="672.94" y2="840.77" gradientUnits="userSpaceOnUse">
   <stop stop-color="#fff" stop-opacity=".40176" offset="0"/>
   <stop stop-color="#fff" stop-opacity="0" offset="1"/>
  </linearGradient>
  <linearGradient id="b" x1="268.29" x2="267.7" y1="997.52" y2="958.32" gradientUnits="userSpaceOnUse">
   <stop stop-color="#fd5" offset="0"/>
   <stop stop-color="#fd5" stop-opacity="0" offset="1"/>
  </linearGradient>
  <linearGradient id="f" x1="631.43" x2="593.97" y1="666.05" y2="886.13" gradientUnits="userSpaceOnUse" xlink:href="#a"/>
  <linearGradient id="d" x2="0" y1="594.32" y2="618.83" gradientUnits="userSpaceOnUse" xlink:href="#a"/>
 </defs>
 <g transform="matrix(.14044 -.000449 .000465 .13566 -57.535 -77.145)">
  <path d="m437.7 596.85h256.17c7.8487 0.0324 11.872 3.4644 11.864 12.19l-6.362 258.55c-0.33511 7.4303-1.9476 14.001-11.818 13.736h-248.04c-9.0666-9e-3 -10.996-5.1258-11.234-11.484l-6.315-256.63c-0.0866-11.698 2.2968-16.499 15.74-16.354z" fill="url(#g)" stroke="#ccc" stroke-linecap="round" stroke-linejoin="round"/>
  <g transform="translate(262.14 -158.52)" clip-path="url(#l)" fill="none" stroke="#b3b3b3" stroke-width=".25">
   <g transform="translate(50.74 68.655)">
    <path d="m111.92 967.7h278.11"/>
    <path d="m111.92 961.05h278.11"/>
    <path d="m111.92 954.39h278.11"/>
    <path d="m111.92 947.74h278.11"/>
    <path d="m111.92 941.08h278.11"/>
    <path d="m111.92 934.43h278.11"/>
    <path d="m111.92 927.77h278.11"/>
    <path d="m111.92 921.12h278.11"/>
    <path d="m111.92 914.46h278.11"/>
    <path d="m111.92 907.81h278.11"/>
    <path d="m111.92 901.15h278.11"/>
    <path d="m111.92 894.5h278.11"/>
    <path d="m111.92 887.84h278.11"/>
    <path d="m111.92 881.19h278.11"/>
    <path d="m111.92 874.54h278.11"/>
    <path d="m111.92 867.88h278.11"/>
    <path d="m111.92 861.23h278.11"/>
    <path d="m111.92 854.57h278.11"/>
    <path d="m111.92 847.92h278.11"/>
    <path d="m111.92 841.26h278.11"/>
    <path d="m111.92 834.61h278.11"/>
    <path d="m111.92 827.95h278.11"/>
    <path d="m111.92 821.3h278.11"/>
    <path d="m111.92 814.64h278.11"/>
    <path d="m111.92 807.99h278.11"/>
    <path d="m111.92 801.33h278.11"/>
    <path d="m111.92 794.68h278.11"/>
    <path d="m111.92 788.02h278.11"/>
    <path d="m111.92 781.37h278.11"/>
    <path d="m111.92 774.71h278.11"/>
    <path d="m111.92 768.06h278.11"/>
    <path d="m111.92 761.4h278.11"/>
    <path d="m111.92 754.75h278.11"/>
    <path d="m111.92 748.09h278.11"/>
    <path d="m111.92 741.44h278.11"/>
    <path d="m111.92 734.78h278.11"/>
    <path d="m111.92 728.13h278.11"/>
    <path d="m111.92 721.47h278.11"/>
    <path d="m111.92 714.82h278.11"/>
    <path d="m111.92 708.16h278.11"/>
    <path d="m111.92 701.51h278.11"/>
    <path d="m111.92 694.85h278.11"/>
    <path d="m111.92 688.2h278.11"/>
   </g>
   <g transform="translate(50.74 70.655)">
    <path d="m111.92 967.7h278.11"/>
    <path d="m111.92 961.05h278.11"/>
    <path d="m111.92 954.39h278.11"/>
    <path d="m111.92 947.74h278.11"/>
    <path d="m111.92 941.08h278.11"/>
    <path d="m111.92 934.43h278.11"/>
    <path d="m111.92 927.77h278.11"/>
    <path d="m111.92 921.12h278.11"/>
    <path d="m111.92 914.46h278.11"/>
    <path d="m111.92 907.81h278.11"/>
    <path d="m111.92 901.15h278.11"/>
    <path d="m111.92 894.5h278.11"/>
    <path d="m111.92 887.84h278.11"/>
    <path d="m111.92 881.19h278.11"/>
    <path d="m111.92 874.54h278.11"/>
    <path d="m111.92 867.88h278.11"/>
    <path d="m111.92 861.23h278.11"/>
    <path d="m111.92 854.57h278.11"/>
    <path d="m111.92 847.92h278.11"/>
    <path d="m111.92 841.26h278.11"/>
    <path d="m111.92 834.61h278.11"/>
    <path d="m111.92 827.95h278.11"/>
    <path d="m111.92 821.3h278.11"/>
    <path d="m111.92 814.64h278.11"/>
    <path d="m111.92 807.99h278.11"/>
    <path d="m111.92 801.33h278.11"/>
    <path d="m111.92 794.68h278.11"/>
    <path d="m111.92 788.02h278.11"/>
    <path d="m111.92 781.37h278.11"/>
    <path d="m111.92 774.71h278.11"/>
    <path d="m111.92 768.06h278.11"/>
    <path d="m111.92 761.4h278.11"/>
    <path d="m111.92 754.75h278.11"/>
    <path d="m111.92 748.09h278.11"/>
    <path d="m111.92 741.44h278.11"/>
    <path d="m111.92 734.78h278.11"/>
    <path d="m111.92 728.13h278.11"/>
    <path d="m111.92 721.47h278.11"/>
    <path d="m111.92 714.82h278.11"/>
    <path d="m111.92 708.16h278.11"/>
    <path d="m111.92 701.51h278.11"/>
    <path d="m111.92 694.85h278.11"/>
    <path d="m111.92 688.2h278.11"/>
   </g>
  </g>
  <path transform="matrix(.96237 0 0 .95722 21.232 36.272)" d="m435.52 864.28h257.44a11.167 11.167 0 0 1 11.167 11.167 11.167 11.167 0 0 1 -11.167 11.167h-257.44a11.167 11.167 0 0 1 -11.167 -11.167 11.167 11.167 0 0 1 11.167 -11.167" fill="#4d4d4d" filter="url(#i)"/>
  <path transform="matrix(1 0 0 .90613 -114.15 78.541)" d="m553.29 871.95 29.99-197.19c1.8271-15.042 10.556-18.911 31.62-18.233l175.18 0.73813-215.37 214.69-23.767-4e-3 2.351-2.9e-4z" filter="url(#k)"/>
  <path d="m437.7 596.85h256.17c7.8487 0.0324 11.872 3.4644 11.864 12.19l-6.362 258.55c-0.33511 7.4303-1.9476 14.001-11.818 13.736h-248.04c-9.0666-9e-3 -10.996-5.1258-11.234-11.484l-6.315-256.63c-0.0866-11.698 2.2968-16.499 15.74-16.354z" fill="none" filter="url(#h)" stroke="url(#d)" stroke-linecap="round" stroke-linejoin="round" stroke-width="3"/>
  <path d="m648.85 659.56 3.595-15.605c1.1957-4.6157 4.4968-7.5096 9.6934-7.1334h75.429c6.3766-0.41904 10.971 1.391 8.6713 9.9541l-46.867 220.82c-0.33511 7.4303-1.9476 14.001-11.818 13.736l-246.46 7e-3c4.6978-0.0334 6.7117-3.7236 7.9688-11.147l30.122-189.54c1.5724-9.9691 7.294-13.771 16.87-13.762l143.29-0.18526c6.853 0.27199 8.4757-2.7024 9.5056-7.1348v-5e-5z" fill="url(#e)"/>
  <path d="m648.85 659.56 3.595-15.605c1.1957-4.6157 4.4968-7.5096 9.6934-7.1334h75.429c6.3766-0.41904 10.971 1.391 8.6713 9.9541l-46.867 220.82c-0.33511 7.4303-1.9476 14.001-11.818 13.736l-246.46 7e-3c4.6978-0.0334 6.7117-3.7236 7.9688-11.147l30.122-189.54c1.5724-9.9691 7.294-13.771 16.87-13.762l143.29-0.18526c6.853 0.27199 8.4757-2.7024 9.5056-7.1348v-5e-5z" fill="none" filter="url(#j)" stroke="url(#f)" stroke-linecap="round" stroke-linejoin="round" stroke-width="3"/>
  <path transform="translate(393.79 -11.818)" d="m255.06 671.31 3.595-15.605c1.1957-4.6157 4.4968-7.5096 9.6934-7.1334h75.429c6.3766-0.41904 10.971 1.391 8.6713 9.9541l-46.867 220.82c-0.33511 7.4303-1.9476 14.001-11.818 13.736l-246.46 7e-3c4.6978-0.0334 6.7117-3.7236 7.9688-11.147l30.122-189.54c1.5724-9.9691 7.294-13.771 16.87-13.762l143.29-0.18526c6.853 0.27199 8.4757-2.7024 9.5056-7.1348v-5e-5z" clip-path="url(#n)" fill="url(#c)"/>
  <path transform="matrix(.99315 0 0 1 299.54 -116.57)" d="m351.45 774.76 3.595-15.605c1.1957-4.6157 4.4968-7.5096 9.6934-7.1334h75.429c6.3766-0.41904 10.971 1.391 8.6713 9.9541l-46.867 220.82c-0.33511 7.4303-1.9476 14.001-11.818 13.736l-246.46 7e-3c4.6978-0.0334 6.7117-3.7236 7.9688-11.147l30.122-189.54c1.5724-9.9691 7.294-13.771 16.87-13.762l143.29-0.18526c6.853 0.27199 8.4757-2.7024 9.5056-7.1348v-5e-5z" clip-path="url(#m)" fill="url(#b)" opacity=".552"/>
 </g>
</svg>
